<svg width="91" height="91" viewBox="0 0 91 91" fill="none" xmlns="http://www.w3.org/2000/svg">
<circle cx="45.5" cy="45.5" r="45.5" fill="#52B6FF"/>
<path d="M45.4653 85C39.9039 84.9959 34.4059 83.8214 29.3291 81.5531C24.2523 79.2847 19.7107 75.6387 16 71.5L21.8907 66.5653C25.4077 70.4945 29.8525 73.4821 34.8205 75.2563C39.7885 77.0305 45.1218 77.5348 50.3348 76.7233C55.5477 75.9118 60.4746 73.8104 64.667 70.6103C68.8593 67.4101 72.1838 63.2131 74.3377 58.4012C76.4916 53.5893 77.4066 48.3155 76.9992 43.0601C76.5919 37.8047 74.8751 32.7345 72.0054 28.3114C69.1356 23.8882 65.204 20.2526 60.5686 17.7355C55.9331 15.2184 50.7411 13.9999 45.4653 14V6C55.9505 6 66.0063 10.1616 73.4205 17.5693C80.8347 24.977 85 35.0239 85 45.5C85 55.9761 80.8347 66.023 73.4205 73.4307C66.0063 80.8384 55.9505 85 45.4653 85Z" fill="white"/>
<circle cx="46" cy="10" r="4" fill="white"/>
<circle cx="19" cy="69" r="4" fill="white"/>
<path d="M28.7082 36.4168V41.7916H34.9819V36.4168H36.9233V49H34.9819V43.6611H28.7082V49H26.7668V36.4168H28.7082ZM49.0165 44.2723C49.0165 45.231 48.8008 46.0819 48.3694 46.8249C47.9499 47.5559 47.3747 48.1312 46.6437 48.5506C45.9246 48.97 45.1157 49.1798 44.2169 49.1798C43.3181 49.1798 42.5032 48.97 41.7722 48.5506C41.0412 48.1312 40.4599 47.5559 40.0285 46.8249C39.6091 46.0819 39.3993 45.231 39.3993 44.2723C39.3993 43.3136 39.6091 42.4687 40.0285 41.7377C40.4599 40.9947 41.0412 40.4134 41.7722 39.994C42.5032 39.5746 43.3181 39.3648 44.2169 39.3648C45.1157 39.3648 45.9246 39.5746 46.6437 39.994C47.3747 40.4134 47.9499 40.9947 48.3694 41.7377C48.8008 42.4687 49.0165 43.3136 49.0165 44.2723ZM47.129 44.2723C47.141 43.6371 47.0152 43.0799 46.7515 42.6005C46.4999 42.1092 46.1523 41.7317 45.7089 41.468C45.2655 41.1924 44.7682 41.0546 44.2169 41.0546C43.6657 41.0546 43.1623 41.1924 42.7069 41.468C42.2635 41.7317 41.91 42.1092 41.6463 42.6005C41.3947 43.0799 41.2748 43.6371 41.2868 44.2723C41.2748 44.8955 41.3947 45.4527 41.6463 45.9441C41.91 46.4234 42.2635 46.8009 42.7069 47.0766C43.1623 47.3522 43.6657 47.49 44.2169 47.49C44.7682 47.49 45.2655 47.3522 45.7089 47.0766C46.1523 46.8009 46.4999 46.4234 46.7515 45.9441C47.0152 45.4527 47.141 44.8955 47.129 44.2723ZM53.1193 49.4314C53.1193 50.0666 52.9755 50.6178 52.6878 51.0852C52.4122 51.5526 52.0287 51.9121 51.5374 52.1638C51.046 52.4154 50.4948 52.5413 49.8836 52.5413L49.1825 51.1212C49.9135 51.1212 50.4408 50.9294 50.7644 50.5459C51.1 50.1625 51.2677 49.6411 51.2677 48.982V39.5626H53.1193V49.4314ZM52.2384 37.4055C51.819 37.4055 51.5074 37.2976 51.3037 37.0819C51.1 36.8662 50.9981 36.5845 50.9981 36.237C50.9981 35.9374 51.1 35.6678 51.3037 35.4281C51.5074 35.1884 51.819 35.0686 52.2384 35.0686C52.6579 35.0686 52.9695 35.1764 53.1732 35.3921C53.3769 35.6078 53.4788 35.8895 53.4788 36.237C53.4788 36.5366 53.3769 36.8062 53.1732 37.0459C52.9695 37.2856 52.6579 37.4055 52.2384 37.4055ZM63.8635 47.7597H63.8455C63.462 48.1312 62.9347 48.4607 62.2636 48.7483C61.5925 49.036 60.8914 49.1798 60.1604 49.1798C59.1777 49.1798 58.3089 48.976 57.5539 48.5686C56.8109 48.1491 56.2296 47.5799 55.8102 46.8609C55.3908 46.1298 55.181 45.3029 55.181 44.3802C55.181 43.3256 55.4027 42.4268 55.8462 41.6838C56.2896 40.9288 56.8768 40.3535 57.6078 39.958C58.3388 39.5506 59.1358 39.3469 59.9986 39.3469C60.7896 39.3469 61.5086 39.5446 62.1557 39.9401C62.8029 40.3236 63.3182 40.8569 63.7017 41.5399C64.0852 42.223 64.2769 43.02 64.2769 43.9308L64.2589 44.7217H57.0326C57.1404 45.5726 57.488 46.2497 58.0752 46.753C58.6744 47.2443 59.4294 47.49 60.3402 47.49C60.9993 47.49 61.5326 47.3702 61.94 47.1305C62.3475 46.8788 62.683 46.6391 62.9467 46.4114L63.8635 47.7597ZM59.9986 41.0546C59.2916 41.0546 58.6744 41.2224 58.1471 41.5579C57.6198 41.8815 57.2723 42.4447 57.1045 43.2477H62.3894V43.1218C62.3535 42.7144 62.2157 42.3549 61.976 42.0433C61.7483 41.7317 61.4607 41.492 61.1131 41.3242C60.7656 41.1445 60.3941 41.0546 59.9986 41.0546Z" fill="white"/>
</svg>
